<?xml version="1.0" encoding="UTF-8"?><svg id="Layer_1" xmlns="http://www.w3.org/2000/svg" viewBox="0 0 370.41 421.3"><defs><style>.cls-1{stroke-width:1.85px;}.cls-1,.cls-2,.cls-3,.cls-4,.cls-5{fill:#faa549;}.cls-1,.cls-3{stroke:#faa549;stroke-miterlimit:10;}.cls-3{stroke-width:.93px;}.cls-4{font-size:73.93px;}.cls-4,.cls-5{font-family:RacingSansOne-Regular, 'Racing Sans One';}.cls-6{letter-spacing:-.03em;}.cls-5{font-size:147.87px;}</style></defs><text class="cls-5" transform="translate(0 342.74)"><tspan x="0" y="0">BOB</tspan><tspan class="cls-6" x="285.24" y="0">A</tspan></text><text class="cls-4" transform="translate(112.95 400.3)"><tspan x="0" y="0">gaming</tspan></text><path class="cls-1" d="M206.44,166.38c-.45-.44-2.45-2.5-2.41-5.32,.03-2.71,1.92-4.72,3.1-5.9,12.44-12.31,33.21-20.18,33.21-20.18,6.32-2.4,10.92-3.75,14.71-1.53,2.22,1.3,3.31,3.33,4.25,5.13,.63,1.22,4.42,8.48,1.72,16.55-2.44,7.3-8.66,10.7-11.72,12.37-7.79,4.26-9.87,.92-33.28,1.61-2.04,.06-6.58,.22-9.58-2.72Z"/><path class="cls-1" d="M123.8,145.1c.92,3.57,2.1,8.03,5.55,12.94,3.08,4.39,6.69,7.31,9.61,9.19,1.95,1.26,4.23,1.9,6.55,1.9h26.64c1.3,0,2.59-.21,3.81-.67,1.51-.56,3.36-1.49,5.16-3.03,1.82-1.56,3.06-3.3,3.9-4.88,1.25-2.34,.91-5.2-.84-7.19-6.6-7.47-12.64-13.94-17.85-19.35-3.25-3.38-9.29-9.56-18.48-14.79-4.63-2.63-8.44-4.1-12.94-3.7-1.41,.13-5.9,.54-9.24,3.7-6.83,6.45-3.53,19.32-1.85,25.88Z"/><path class="cls-1" d="M101.62,147.19c0,1.03-.63,1.94-1.58,2.31-1.49,.58-3.48,1.12-5.81,1.14-6.62,.07-11.2-4-12.94-5.55-1.37-1.21-3.4-3.32-5.12-6.55-.29-.54-.43-1.17-.43-1.79v-31.51c0-.54,.14-1.06,.42-1.52,1.24-2.02,2.91-4.34,5.12-6.7,2.72-2.9,5.48-5.01,7.82-6.52,.88-.57,1.44-1.51,1.51-2.56,.44-6.86,2.01-16.98,7.31-27.89,3.48-7.17,7.6-12.68,11.09-16.64v-5.55C113.51,32.84,142.52,1.33,190.34,.93c48.91-.41,78.79,32.04,83.18,36.97v5.55c3.84,3.62,10.54,10.9,14.79,22.18,3.41,9.06,3.9,17.14,3.76,22.4-.03,1,.46,1.93,1.3,2.47,1.86,1.19,3.93,2.73,6.03,4.7,3.17,2.98,5.4,6.01,6.93,8.48,.31,.5,.46,1.07,.46,1.65v31.44c0,.64-.14,1.27-.42,1.84-1.09,2.23-3.19,5.6-6.97,8.33-6.06,4.37-12.72,4.41-16.24,4.04-1.27-.13-2.24-1.2-2.24-2.48v-57.32c0-1.03-.11-2.06-.36-3.05-9.97-40.38-45.63-69.35-86.51-70.58-42.82-1.28-81.5,28.17-92.03,70.49-.26,1.06-.38,2.15-.38,3.24v55.9Z"/><g><path class="cls-2" d="M182.95,191.31c1.85-4.31,3.7-8.63,5.55-12.94"/><path class="cls-2" d="M182.69,191.2c-1.01-1.91-1.51-4.1-.19-5.82,.4-.47,.84-.92,1.18-1.41,1.35-1.96,2.92-3.96,4.56-5.7,0,0,.51,.22,.51,.22-.06,1.25-.22,2.46-.37,3.67-.12,.9-.43,2.68-.62,3.56-.25,1.15-.03,2.5-.88,3.45-.94,1.13-2.07,1.83-3.68,2.25,0,0-.51-.22-.51-.22h0Z"/></g><g><path class="cls-2" d="M205.13,191.31c-1.85-4.31-3.7-8.63-5.55-12.94"/><path class="cls-2" d="M204.87,191.42c-2.08-.59-4.01-1.74-4.35-3.88-.06-.61-.09-1.24-.21-1.82-.49-2.33-.85-4.85-.99-7.23,0,0,.51-.22,.51-.22,.86,.91,1.63,1.85,2.41,2.8,.57,.7,1.65,2.16,2.15,2.91,.66,.97,1.79,1.75,1.9,3.02,.17,1.46-.1,2.76-.91,4.22,0,0-.51,.22-.51,.22h0Z"/></g><path class="cls-3" d="M182.95,220.88c.3-2.85,13.82,.85,25.88-7.39,9.92-6.78,10.68-16.06,18.48-16.64,4.61-.34,8.86,2.56,11.09,5.55,4.1,5.47,3.15,13.54,0,18.48-7.73,12.14-30.54,8.44-36.97,7.39-8.97-1.46-18.74-4.96-18.48-7.39Z"/></svg>